<svg xmlns="http://www.w3.org/2000/svg" viewBox="0 0 48 48">
    <rect width="48" height="48" fill="#ff6b6b" rx="8"/>
    
    <!-- Book pages -->
    <path d="M12 10C12 8.89543 12.8954 8 14 8H34C35.1046 8 36 8.89543 36 10V38C36 39.1046 35.1046 40 34 40H14C12.8954 40 12 39.1046 12 38V10Z" fill="white" opacity="0.9"/>
    
    <!-- Book spine -->
    <path d="M8 10C8 8.89543 8.89543 8 10 8H14V40H10C8.89543 40 8 39.1046 8 38V10Z" fill="white" opacity="0.7"/>
    
    <!-- AI brain circuit -->
    <circle cx="24" cy="20" r="2.5" fill="#ff6b6b" stroke="#ff6b6b" stroke-width="1.5"/>
    <circle cx="18" cy="26" r="2" fill="#ff6b6b" stroke="#ff6b6b" stroke-width="1.5"/>
    <circle cx="30" cy="26" r="2" fill="#ff6b6b" stroke="#ff6b6b" stroke-width="1.5"/>
    <circle cx="24" cy="32" r="2" fill="#ff6b6b" stroke="#ff6b6b" stroke-width="1.5"/>
    
    <!-- Connection lines -->
    <line x1="24" y1="22.5" x2="18" y2="24" stroke="#ff6b6b" stroke-width="1.5" stroke-linecap="round"/>
    <line x1="24" y1="22.5" x2="30" y2="24" stroke="#ff6b6b" stroke-width="1.5" stroke-linecap="round"/>
    <line x1="18" y1="28" x2="24" y2="30" stroke="#ff6b6b" stroke-width="1.5" stroke-linecap="round"/>
    <line x1="30" y1="28" x2="24" y2="30" stroke="#ff6b6b" stroke-width="1.5" stroke-linecap="round"/>
</svg>
