<svg viewBox="0 0 210 48" fill="none" xmlns="http://www.w3.org/2000/svg">
    <!-- Book pages -->
    <path d="M12 8C12 6.89543 12.8954 6 14 6H34C35.1046 6 36 6.89543 36 8V40C36 41.1046 35.1046 42 34 42H14C12.8954 42 12 41.1046 12 40V8Z" fill="white" opacity="0.9"/>
    
    <!-- Book spine -->
    <path d="M8 8C8 6.89543 8.89543 6 10 6H14V42H10C8.89543 42 8 41.1046 8 40V8Z" fill="white" opacity="0.7"/>
    
    <!-- AI brain circuit -->
    <circle cx="24" cy="20" r="2.5" fill="#FF6B6B" stroke="#FF6B6B" stroke-width="1.5"/>
    <circle cx="18" cy="26" r="2" fill="#FF6B6B" stroke="#FF6B6B" stroke-width="1.5"/>
    <circle cx="30" cy="26" r="2" fill="#FF6B6B" stroke="#FF6B6B" stroke-width="1.5"/>
    <circle cx="24" cy="32" r="2" fill="#FF6B6B" stroke="#FF6B6B" stroke-width="1.5"/>
    
    <!-- Connection lines -->
    <line x1="24" y1="22.5" x2="18" y2="24" stroke="#FF6B6B" stroke-width="1.5" stroke-linecap="round"/>
    <line x1="24" y1="22.5" x2="30" y2="24" stroke="#FF6B6B" stroke-width="1.5" stroke-linecap="round"/>
    <line x1="18" y1="28" x2="24" y2="30" stroke="#FF6B6B" stroke-width="1.5" stroke-linecap="round"/>
    <line x1="30" y1="28" x2="24" y2="30" stroke="#FF6B6B" stroke-width="1.5" stroke-linecap="round"/>
    
    <!-- Text: Learning RAG -->
    <text x="50" y="30" font-family="Arial, Helvetica, sans-serif" font-size="22" font-weight="bold" fill="white" letter-spacing="0.5">
        Learning RAG
    </text>
</svg>
